<svg xmlns="http://www.w3.org/2000/svg" width="335.36" height="73.58" viewBox="0 0 335.36 73.58">
  <defs>
    <style>
      .cls-1 {
        fill: #231815;
      }

      .cls-2, .cls-3 {
        fill: none;
        stroke: #231815;
      }

      .cls-2 {
        stroke-miterlimit: 10;
      }

      .cls-3 {
        stroke-linecap: round;
        stroke-linejoin: round;
      }
    </style>
  </defs>
  <title>アセット 2</title>
  <g id="レイヤー_2" data-name="レイヤー 2">
    <g id="レイヤー_1-2" data-name="レイヤー 1">
      <path class="cls-1" d="M321.55,34.38l-.09,10.44a15.78,15.78,0,0,0-3.65.36,14.44,14.44,0,0,0-2.48.81,6,6,0,0,0-2.7,2.61,13.38,13.38,0,0,0-1.71,5.08,57.2,57.2,0,0,0-.54,8.86v9.18H299.93V62.54q0-4,.32-7.69a32.12,32.12,0,0,1,1.4-7.06,20.25,20.25,0,0,1,3.19-6.43,15.06,15.06,0,0,1,5.81-4.73,17,17,0,0,1,5.05-1.75,31.92,31.92,0,0,1,5.76-.5Z"/>
      <path class="cls-1" d="M329.38,35.49a5.82,5.82,0,0,1-4.21-1.73,5.61,5.61,0,0,1-1.77-4.17,5.71,5.71,0,0,1,1.77-4.26,6,6,0,0,1,8.42,0,5.71,5.71,0,0,1,1.77,4.26,5.61,5.61,0,0,1-1.77,4.17A5.81,5.81,0,0,1,329.38,35.49Z"/>
      <rect class="cls-1" x="324.36" y="35.73" width="10.04" height="35.97"/>
      <circle class="cls-2" cx="277.19" cy="52.35" r="20.73"/>
      <path class="cls-1" d="M84.87,31.22h9.74v41H85l-.5-6c-2.33,4.83-8.73,7.16-13.31,7.24-12.14.08-21.13-7.4-21.13-21.79,0-14.14,9.4-21.55,21.38-21.46,5.49,0,10.73,2.58,13.06,6.65ZM57.17,51.68c0,7.87,5.44,12.56,12.23,12.56,16.08,0,16.08-25,0-25C62.61,39.2,57.17,43.81,57.17,51.68Z"/>
      <path class="cls-1" d="M201.1,31.22h9.73v41h-9.57l-.5-6c-2.33,4.83-8.73,7.16-13.31,7.24-12.14.08-21.12-7.4-21.12-21.79,0-14.14,9.39-21.55,21.37-21.46,5.49,0,10.73,2.58,13.06,6.65ZM173.39,51.68c0,7.87,5.45,12.56,12.23,12.56,16.08,0,16.08-25,0-25C178.84,39.2,173.39,43.81,173.39,51.68Z"/>
      <path class="cls-1" d="M126.13,72.17V50.1c0-5.43-2.91-10.36-8.63-10.36s-9,4.93-9,10.36V72.17H98.1V30.87h9.65l.77,5c2.22-4.18,7.1-5.68,11.11-5.68,5,0,10.09,2,12.48,7.69,3.76-5.86,8.63-7.53,14.1-7.53,12,0,17.86,7.19,17.86,19.56V72.17H153.64V49.93c0-5.43-2.3-10-7.94-10s-9.15,4.77-9.15,10.2V72.17Z"/>
      <path class="cls-1" d="M224.6,13.19V36.34a15.37,15.37,0,0,1,13-6.25c11.82,0,17.06,8,17.06,20.27v22H244.36V50.44c0-7.6-4-10.81-9.46-10.81-6.08,0-10.3,5.16-10.3,11.41V72.32H214.29V13.19Z"/>
      <g>
        <path d="M27,60.15c-2.81-.8-4.63-3.33-4.63-7.7V28.05H36.75V16H22.47V0L9.66,1.49V16H0v12H9.66v24.4c0,10.41,4,16.94,10.67,19.45Z"/>
        <polygon class="cls-3" points="52.1 15.37 42.53 32.77 37.1 43.72 32.1 32.52 30.56 29.22 23.41 42.21 29.97 54.43 20.19 71.67 34.44 71.67 66.47 15.37 52.1 15.37"/>
      </g>
    </g>
  </g>
</svg>
